<svg xmlns="http://www.w3.org/2000/svg" viewBox="0 0 512 512">
  <circle cx="256" cy="256" r="252" fill="#c0272d"/>
  <g transform="translate(-51,-8) scale(1.08)" fill="#ffffff">
    <path d="
      M 120,250
      C 168,214 218,198 258,190
      C 272,184 282,178 296,170
      C 308,156 314,140 326,126
      C 336,114 352,104 374,104
      L 440,116
      L 448,130
      L 426,132
      L 442,143
      L 416,146
      L 430,155
      L 392,152
      C 374,150 364,144 358,136
      C 352,155 348,174 346,192
      L 366,206
      L 358,215
      L 347,206
      C 342,220 338,238 338,256
      C 356,252 378,256 396,270
      L 404,316
      L 416,384
      L 393,384
      L 390,360
      L 370,360
      L 370,384
      L 347,384
      L 352,314
      L 332,312
      L 326,384
      L 303,384
      L 306,356
      C 304,322 300,286 288,258
      C 232,254 168,258 120,250
      Z"/>
  </g>
</svg>
